<svg id="Layer_1" data-name="Layer 1" xmlns="http://www.w3.org/2000/svg" viewBox="0 0 1023 1024"><defs><style>.cls-1{fill:#2d6095;}.cls-2{fill:#fff;}.cls-3{fill:#00bdc3;}</style></defs><title>CryptoGeekAppIcon</title><rect class="cls-1" x="-6.5" y="-6" width="1036" height="1036"/><path class="cls-2" d="M511.5,663.62c14.49,2.15,21.2,18,21.2,18,21.19,68.35,26.69,69.87,53.38,100.49S693.64,821.37,748.59,797s61.24-131.1,61.24-131.1L824,650.23V602.34c-46.48-14.68-186.72-16.45-278.7,9.42-16.31,2.33-50.94,2.37-67.52,0-95.57-26.89-234.52-23.38-278.7-9.43v47.89l14.13,15.7S219.45,772.69,274.41,797s135.81,15.7,162.51-14.91S469.1,750,490.3,681.63C490.3,681.63,497,665.77,511.5,663.62ZM721.11,789.18c-55,13.35-113.05,5.5-136.6-37.68s-29-88.71-11.77-105.2c0,0,18-22.77,67.51-25.91s123.26-11,139,33S776.07,775.84,721.11,789.18ZM243.79,653.36c15.7-44,89.5-36.11,139-33s67.51,25.91,67.51,25.91c17.28,16.49,11.78,62-11.77,105.2s-81.65,51-136.61,37.68S228.09,697.33,243.79,653.36Z"/><path class="cls-3" d="M847.51,457a15.84,15.84,0,0,1-.16,2.5,12.59,12.59,0,0,1-.29,2,26.24,26.24,0,0,1-.85,3.25c-10.29,30.43-80.62,56.34-180.05,69.78-8.6,1.17-17.47,2.24-26.5,3.22-12,1.26-24.41,2.4-37.08,3.31l-7.21.49q-23.76,1.61-48.77,2.27-17.34.48-35.1.49c-55.27,0-107.42-3.48-153.39-9.62-98-13.08-168-38.31-180.61-68-.39-1-.75-1.95-1-2.93a27.89,27.89,0,0,1-.88-4.44c-.06-.75-.09-1.43-.09-2.18v-.23c0-.65,0-1.3.09-1.94a.83.83,0,0,1,.07-.39,14.65,14.65,0,0,1,.19-1.5,24.54,24.54,0,0,1,2.15-6.59,10.26,10.26,0,0,1,.61-1.3,22.34,22.34,0,0,1,1.73-2.92,37.93,37.93,0,0,1,3.76-4.9c.65-.72,1.3-1.43,2-2.15.49-.45,1-1,1.53-1.49,1-.91,2-1.85,3.15-2.76.78-.62,1.59-1.27,2.37-1.92s1.85-1.33,2.76-2l2.92-2a13,13,0,0,0,1.27-.82c.87-.55,1.78-1.13,2.69-1.68,28.71-17.28,78.39-31.7,140.73-41.05a1074.12,1074.12,0,0,1,118.88-10.75c7.08-.29,14.26-.51,21.46-.64,9.16-.2,18.35-.3,27.67-.3,34.29,0,67.41,1.33,98.62,3.83,92.28,7.34,167.71,24.72,207.26,47.25,1.27.75,2.5,1.46,3.73,2.21,1,.65,2.08,1.3,3.09,1.95l2.92,2c.88.62,1.75,1.3,2.63,1.92,1.92,1.49,3.67,2.95,5.26,4.44.65.62,1.33,1.21,1.92,1.82a43.39,43.39,0,0,1,3.5,4c.46.59.91,1.17,1.3,1.76a16.55,16.55,0,0,1,1.2,1.75c.36.59.75,1.17,1.08,1.75s.61,1.21.9,1.79a18,18,0,0,1,1.43,3.6c.17.56.33,1.11.46,1.66a.4.4,0,0,1,.1.26c.09.49.19,1,.29,1.49a5,5,0,0,1,.06.62,7.8,7.8,0,0,1,.13,1.24A12.56,12.56,0,0,1,847.51,457Z"/><polygon class="cls-2" points="453.62 236.26 453.62 283.02 494.12 306.4 534.61 283.02 534.61 236.26 494.12 212.88 453.62 236.26"/><polygon class="cls-2" points="552.87 245.72 552.87 284.37 586.34 303.7 619.81 284.37 619.81 245.72 586.34 226.4 552.87 245.72"/><polygon class="cls-2" points="610.11 335.83 610.11 408.73 547 445.18 483.85 408.73 483.85 335.83 547 299.38 610.11 335.83"/><polygon class="cls-2" points="462.37 314.36 462.37 382.99 402.92 417.32 343.49 382.99 343.49 314.36 402.92 280.03 462.37 314.36"/><path class="cls-2" d="M546.59,470.2v73.89q-17.31.49-35.09.47c-55.26,0-107.42-3.47-153.4-9.6V470.2l94.23-54.38Z"/><path class="cls-2" d="M682.33,458.58v66.6l-16.17,9.35c-8.6,1.17-17.47,2.24-26.5,3.22-12,1.26-24.41,2.4-37.08,3.31l-7.21.49L567,525.18v-66.6l57.66-33.25Z"/></svg>